<?xml version="1.0" encoding="utf-8"?>
<!-- Generator: Adobe Illustrator 16.0.0, SVG Export Plug-In . SVG Version: 6.00 Build 0)  -->
<!DOCTYPE svg PUBLIC "-//W3C//DTD SVG 1.1//EN" "http://www.w3.org/Graphics/SVG/1.1/DTD/svg11.dtd">
<svg version="1.1" id="Layer_1" xmlns="http://www.w3.org/2000/svg" xmlns:xlink="http://www.w3.org/1999/xlink" x="0px" y="0px"
	 width="512px" height="512px" viewBox="0 0 512 512" enable-background="new 0 0 512 512" xml:space="preserve">
<path fill="#FFFBEF" d="M119.333,492c64.333-141.333-92.667-99.666-95.545-253.455c1.189-28.983,17.374-58.406,67.888-77.013
	c74.991-6.749,12.002-84.515,182.213-43.043c41.864,4.157,48.484,23.644,72.303,66.844c30.67,55.633,70.629,141.326,48.719,186.708
	c-23.91,60.626,23.521,103.966,23.521,103.966l8.097,10.634C426.526,486.641,246.666,370.667,119.333,492z"/>
<linearGradient id="SVGID_1_" gradientUnits="userSpaceOnUse" x1="44.5703" y1="521.6641" x2="44.5703" y2="481.875" gradientTransform="matrix(1 0 0 1 16.6797 -328.9199)">
	<stop  offset="0" style="stop-color:#CC4567"/>
	<stop  offset="0.7882" style="stop-color:#ED8EA5"/>
</linearGradient>
<path fill="url(#SVGID_1_)" d="M86.082,192.743c0,0,0.148-5.705-4.367-15.752c-4.802-10.682-19.738-20.661-23.433-22.68
	c-8.291-4.097-16.073,2.045-18.873,5.755c-6.977,8.778,0.437,23.313,0.437,23.313s18.045,5.657,17.363,1.756
	c-0.146-0.405,8.291,1.658,14.191,1.901C79.797,189.309,86.082,192.743,86.082,192.743z"/>
<linearGradient id="SVGID_2_" gradientUnits="userSpaceOnUse" x1="-0.2144" y1="585.6582" x2="476.6885" y2="585.6582" gradientTransform="matrix(1 0 0 1 16.6797 -328.9199)">
	<stop  offset="0" style="stop-color:#1F1F1F"/>
	<stop  offset="0.7882" style="stop-color:#5C4D43"/>
</linearGradient>
<path fill="url(#SVGID_2_)" d="M149.661,202.041c18.394-19.839,36.343-38.168,61.67-46.74c9.459-3.202,19.162-2.674,28.875-0.844
	c2.011,0.379,4.282,0.057,6.312-0.441c12.434-3.055,24.859-6.155,37.232-9.444c6.23-1.657,12.348-3.743,19.477-5.928
	c-1.641-1.065-2.481-1.718-3.415-2.2c-14.294-7.389-29.665-11.527-45.281-14.912c-17.787-3.853-35.792-6.04-53.964-6.685
	c-23.386-0.833-43.483,6.711-60.074,23.556c-9.246,9.389-19.569,17.432-32.082,22.273c-10.422,4.033-21.424,4.963-32.35,6.276
	c-1.252,0.15-2.958-0.792-3.968-1.745c-5.235-4.936-10.821-9.27-17.784-12.262c5.322-0.418,10.657-0.707,15.962-1.278
	c16.907-1.823,33.464-5.01,47.402-15.605c7.02-5.337,13.48-11.41,20.164-17.186c15.087-13.039,32.831-19.378,52.489-21.119
	c18.604-1.646,37.11-0.35,55.632,1.263c1.213,0.106,3.029-1.12,3.789-2.249c9.702-14.434,18.905-29.218,28.987-43.377
	c6.822-9.584,14.527-18.6,22.434-27.333c4.445-4.914,10.315-8.181,17.3-8.903c9.396-0.972,17.351,2.8,20.653,11.738
	c2.747,7.435,4.672,15.394,5.514,23.276c3.28,30.731-1.708,60.783-8.768,90.562c-0.788,3.327,0.063,5.238,2.475,7.357
	c4.694,4.133,9.236,5.366,15.516,2.837c24.506-9.872,49.121-19.497,73.91-28.635c11.374-4.194,23.138-7.498,34.938-10.294
	c4.709-1.116,10.146-0.454,14.993,0.598c8.934,1.934,14.415,9.71,15.378,20.223c1.282,13.987-1.863,27.38-5.813,40.57
	c-7.607,25.427-19.221,49.162-31.288,72.703c-12.763,24.905-25.649,49.757-37.792,74.966
	c-10.221,21.224-17.044,43.646-20.238,67.072c-4.768,34.927,3.684,66.145,26.274,93.376c0.825,0.998,1.565,2.069,2.307,3.134
	c0.105,0.156-0.013,0.469-0.064,1.353c-1.273-0.707-2.413-1.147-3.328-1.873c-22.25-17.717-36.495-40.242-40.465-68.657
	c-0.982-7.04-0.778-14.255-0.952-21.395c-0.05-2.012-0.583-2.98-2.666-3.469c-33.604-7.873-56.271-29.259-72.146-58.838
	c-9.487-17.672-15.236-36.853-21.97-55.633c-2.709-7.561-5.377-15.143-8.402-22.575c-5.545-13.613-11.737-18.036-25.835-14.869
	c-23.055,5.18-43.403-0.049-62.492-12.714C175.567,219.586,163.036,211.046,149.661,202.041z M67.902,186.062
	c-6.421,0.246-9.292-2.888-10.064-9.176c-0.261-2.126-2.542-5.211-4.378-5.6c-1.847-0.392-4.739,1.594-6.377,3.301
	c-3.31,3.448-6.245,7.296-9.032,11.195c-3.987,5.579-8.232,11.07-11.438,17.092c-9.727,18.28-11.379,38.001-9.426,58.267
	c3.383,35.117,18.557,64.157,44.945,87.412c11.497,10.133,23.825,19.43,34.529,30.331c26.767,27.263,32.244,58.947,17.178,94.112
	c-1.582,3.688-3.354,7.309-4.771,11.061c-1.611,4.263-0.632,8.08,2.264,10.226c3.865,2.857,8.041,2.979,11.832-0.017
	c1.804-1.428,3.424-3.211,4.756-5.095c9.05-12.807,13.703-27.145,15.026-42.731c2.278-26.846-5.301-50.455-22.583-71.059
	c-10.709-12.768-24.192-22.354-37.009-32.734c-23.489-19.028-40.511-42.367-46.214-72.641c-1.397-7.415-1.308-15.168-1.25-22.761
	c0.015-1.844,2.288-4.458,4.138-5.219c1.194-0.492,4.02,1.329,5.248,2.825c18.744,22.822,42.231,38.972,69.542,49.776
	c2.774,1.098,5.782,1.607,9.417,2.59c-0.635-1.268-0.72-1.685-0.975-1.898c-0.892-0.75-1.821-1.459-2.773-2.133
	c-13.693-9.703-27.123-19.764-38.525-32.16c-8.088-8.794-15.793-17.948-23.495-27.089c-5.35-6.352-11.488-10.488-20.247-8.907
	c-0.176,0.032-0.41-0.252-0.615-0.392c0.629-17.994,16.196-35.771,33.794-37.599C69.611,186.519,68.747,186.03,67.902,186.062z
	 M270.154,371.064c-0.027-0.369,0.033-0.774-0.1-1.103c-0.594-1.438-1.189-2.881-1.878-4.274
	c-9.052-18.416-20.872-34.987-34.144-50.528c-21.193-24.814-46.267-45.181-73.793-62.463c-11.597-7.281-24.03-13.234-36.134-19.696
	c-0.983-0.526-2.358-0.318-3.551-0.452c0.455,1.648,1.127,2.404,1.915,3.012c13.466,10.396,26.923,20.803,40.426,31.153
	c28.645,21.954,55.385,45.975,79.106,73.232c7.673,8.816,14.96,17.972,22.456,26.945c1.485,1.776,3.11,3.437,4.676,5.149
	C269.475,371.717,269.814,371.393,270.154,371.064z M208.31,383.898c-5.962-32.316-21.081-60.42-41.494-85.778
	c-17.832-22.152-38.842-40.716-65.085-52.774c-0.024,1.247,0.306,2.17,0.931,2.797c3.119,3.127,6.183,6.325,9.503,9.23
	c20.606,18.029,39.277,37.829,55.433,59.979c14.205,19.477,25.056,40.881,36.118,62.174c0.92,1.771,1.995,3.467,2.998,5.195
	C207.246,384.447,207.778,384.173,208.31,383.898z"/>
<linearGradient id="SVGID_3_" gradientUnits="userSpaceOnUse" x1="364.1982" y1="497.876" x2="424.468" y2="558.1458" gradientTransform="matrix(1 0 0 1 16.6797 -328.9199)">
	<stop  offset="0" style="stop-color:#CC4567"/>
	<stop  offset="0.7882" style="stop-color:#ED8EA5"/>
</linearGradient>
<path fill="url(#SVGID_3_)" d="M393.25,266.188c-9.938,0.072-17.214-4.17-23.238-10.314c-13.637-13.909-20.897-31.081-23.802-50.106
	c-0.27-1.773,2.125-4.536,3.964-5.95c11.743-9.013,23.482-18.054,35.598-26.554c14.451-10.139,29.179-19.974,45.896-26.122
	c4.549-1.673,9.516-2.775,14.348-3.012c9.888-0.486,15.404,5.152,15.818,15.112c0.358,8.633-2.058,16.751-5.152,24.582
	c-10.187,25.771-24.01,49.485-41.473,71.015C409.403,261.992,402.096,266.614,393.25,266.188z"/>
<linearGradient id="SVGID_4_" gradientUnits="userSpaceOnUse" x1="210.2822" y1="172.2036" x2="230.6382" y2="225.2326">
	<stop  offset="0" style="stop-color:#4FCF97"/>
	<stop  offset="1" style="stop-color:#E3FF8F"/>
</linearGradient>
<path fill="url(#SVGID_4_)" d="M235.338,173.065c9.834,3.938,19.166,7.684,24.721,16.962c3.351,5.594,2.912,11.545-0.896,16.488
	c-3.26,4.228-7.222,8.337-11.73,11.103c-16.21,9.941-33.738,11.401-51.689,5.652c-10.559-3.381-15.852-11.421-14.435-20.795
	c1.332-8.798,5.527-19.725,28.991-30.278c0.242,0.342-10.214,12.428-8.193,19.811c0.979,5.992,10.229,12.117,20.739,8.519
	C241.667,193.31,237.45,180.848,235.338,173.065z"/>
</svg>
